<svg width="161" height="47" viewBox="0 0 161 47" fill="none" xmlns="http://www.w3.org/2000/svg">
<path d="M6 26.5236H12.0219L9.52696 37.216L8.43417 41.8994L11.6692 38.3408L26.6692 21.8408L28.57 19.75H25.7443H19.2199L20.9773 9.20549L21.7253 4.71714L18.7893 8.19345L5.04502 24.467L3.30812 26.5236H6Z" stroke="#E8DEF8" stroke-width="2.5"/>
<path d="M41.6642 34.2871C42.5848 34.3053 43.4096 34.0957 44.1388 33.6582C44.8771 33.2116 45.5242 32.6374 46.0802 31.9355L45.7794 34H48.6642L51.2345 19.207H48.0353L46.2032 29.6934C46.0027 29.985 45.784 30.2448 45.547 30.4727C45.3191 30.7005 45.073 30.8965 44.8087 31.0605C44.4988 31.2428 44.1616 31.3796 43.797 31.4707C43.4324 31.5618 43.045 31.6029 42.6349 31.5938C42.1154 31.5755 41.7143 31.457 41.4318 31.2383C41.1583 31.0195 40.9669 30.7415 40.8575 30.4043C40.7391 30.0671 40.6798 29.6888 40.6798 29.2695C40.6889 28.8503 40.7163 28.431 40.7618 28.0117L42.2247 19.207H39.0392L37.5763 27.9707C37.4943 28.7363 37.4897 29.4928 37.5626 30.2402C37.6355 30.9785 37.8361 31.6576 38.1642 32.2773C38.4832 32.8607 38.9253 33.3392 39.4904 33.7129C40.0555 34.0775 40.7801 34.2689 41.6642 34.2871ZM54.0587 13L53.5665 15.7207H58.1193L55.4259 31.293H50.8868L50.4083 34H62.5079L62.9865 31.293H58.6388L61.8107 13H54.0587ZM70.5107 15.5977H67.3115L66.6825 19.207H63.2099L62.7724 21.6543H66.2587L65.0556 28.9277C64.9827 29.666 65.01 30.3587 65.1376 31.0059C65.2743 31.6439 65.5159 32.2044 65.8622 32.6875C66.1995 33.1615 66.6461 33.5443 67.2021 33.8359C67.7672 34.1185 68.4462 34.2643 69.2392 34.2734C69.9319 34.2917 70.6565 34.2415 71.413 34.123C72.1695 34.0137 72.8622 33.7858 73.4911 33.4395L73.3271 31.1562C72.8167 31.2656 72.3062 31.3613 71.7958 31.4434C71.2854 31.5254 70.7704 31.5573 70.2509 31.5391C69.8225 31.5299 69.467 31.4525 69.1845 31.3066C68.9111 31.1608 68.706 30.9603 68.5693 30.7051C68.4143 30.459 68.3141 30.1673 68.2685 29.8301C68.232 29.4928 68.2366 29.1283 68.2822 28.7363L69.4579 21.6543H74.8583L75.2822 19.207H69.8818L70.5107 15.5977ZM85.7197 18.9062C85.1819 18.9062 84.6715 18.9701 84.1884 19.0977C83.7053 19.2253 83.245 19.4076 82.8075 19.6445C82.3792 19.8815 81.9736 20.1686 81.5907 20.5059C81.2079 20.834 80.8479 21.1986 80.5107 21.5996L80.6064 21.0801L80.9072 19.207H77.9267L75.3564 34H78.5419L80.1279 24.8535C80.3922 24.4069 80.6838 24.0104 81.0029 23.6641C81.331 23.3177 81.691 23.0352 82.0829 22.8164C82.4657 22.5977 82.885 22.4336 83.3407 22.3242C83.7965 22.2057 84.2841 22.151 84.8036 22.1602C85.2776 22.1693 85.7424 22.2057 86.1982 22.2695C86.663 22.3333 87.1233 22.4199 87.579 22.5293L88.4267 19.3027C87.9801 19.166 87.5289 19.0703 87.0732 19.0156C86.6266 18.9518 86.1754 18.9154 85.7197 18.9062ZM97.1181 34H100.304L100.317 33.7539C100.162 33.2435 100.094 32.724 100.112 32.1953C100.14 31.6576 100.194 31.1243 100.276 30.5957L101.356 24.0195C101.438 23.1992 101.352 22.4746 101.097 21.8457C100.851 21.2168 100.486 20.6882 100.003 20.2598C99.5107 19.8314 98.9273 19.5078 98.2529 19.2891C97.5784 19.0612 96.8629 18.9382 96.1064 18.9199C95.3954 18.9108 94.6708 18.9974 93.9325 19.1797C93.2034 19.3529 92.538 19.6263 91.9365 20C91.3258 20.3828 90.8154 20.8659 90.4052 21.4492C90.0042 22.0234 89.7717 22.7025 89.7079 23.4863L92.8935 23.4727C92.9664 23.1263 93.0894 22.8255 93.2626 22.5703C93.4358 22.306 93.65 22.0918 93.9052 21.9277C94.1513 21.7454 94.4338 21.6133 94.7529 21.5312C95.0719 21.4492 95.4091 21.4128 95.7646 21.4219C96.1656 21.431 96.5256 21.4948 96.8447 21.6133C97.1637 21.7227 97.428 21.8867 97.6376 22.1055C97.8564 22.3242 98.0113 22.5931 98.1025 22.9121C98.2027 23.222 98.2255 23.5775 98.1708 23.9785L97.9931 25.0039L95.5732 24.9766C95.0172 24.9766 94.4566 25.013 93.8915 25.0859C93.3264 25.1497 92.7795 25.2591 92.2509 25.4141C91.7223 25.569 91.221 25.7741 90.747 26.0293C90.273 26.2754 89.8583 26.5853 89.5029 26.959C89.1383 27.3327 88.842 27.7702 88.6142 28.2715C88.3954 28.7637 88.2724 29.3333 88.245 29.9805C88.2086 30.6367 88.3043 31.2292 88.5322 31.7578C88.76 32.2773 89.0836 32.7194 89.5029 33.084C89.9039 33.4577 90.3824 33.7493 90.9384 33.959C91.4944 34.1595 92.0823 34.2643 92.7021 34.2734C93.2581 34.2826 93.7822 34.2188 94.2743 34.082C94.7756 33.9453 95.2496 33.7493 95.6962 33.4941C95.9241 33.3665 96.1474 33.2207 96.3661 33.0566C96.5849 32.8835 96.7991 32.7057 97.0087 32.5234C96.9905 32.7786 96.9859 33.0247 96.995 33.2617C97.0042 33.4987 97.0452 33.7448 97.1181 34ZM93.4677 31.6621C93.1578 31.653 92.8707 31.6074 92.6064 31.5254C92.3512 31.4342 92.1324 31.3066 91.9501 31.1426C91.7678 30.9785 91.6357 30.7734 91.5536 30.5273C91.4716 30.2721 91.4488 29.9805 91.4853 29.6523C91.5217 29.3698 91.5901 29.1191 91.6904 28.9004C91.7997 28.6725 91.9273 28.4674 92.0732 28.2852C92.2281 28.112 92.4059 27.9616 92.6064 27.834C92.8069 27.7064 93.0165 27.5879 93.2353 27.4785C93.6363 27.3145 94.0647 27.2005 94.5204 27.1367C94.9762 27.0729 95.4137 27.041 95.8329 27.041L97.706 27.0547L97.2001 29.8027C96.9996 30.0671 96.7717 30.3086 96.5165 30.5273C96.2704 30.7461 96.0107 30.9329 95.7372 31.0879C95.4 31.2793 95.04 31.4251 94.6572 31.5254C94.2743 31.6257 93.8779 31.6712 93.4677 31.6621ZM109.811 15.5977H106.612L105.983 19.207H102.511L102.073 21.6543H105.559L104.356 28.9277C104.283 29.666 104.311 30.3587 104.438 31.0059C104.575 31.6439 104.817 32.2044 105.163 32.6875C105.5 33.1615 105.947 33.5443 106.503 33.8359C107.068 34.1185 107.747 34.2643 108.54 34.2734C109.233 34.2917 109.957 34.2415 110.714 34.123C111.47 34.0137 112.163 33.7858 112.792 33.4395L112.628 31.1562C112.117 31.2656 111.607 31.3613 111.097 31.4434C110.586 31.5254 110.071 31.5573 109.552 31.5391C109.123 31.5299 108.768 31.4525 108.485 31.3066C108.212 31.1608 108.007 30.9603 107.87 30.7051C107.715 30.459 107.615 30.1673 107.569 29.8301C107.533 29.4928 107.537 29.1283 107.583 28.7363L108.759 21.6543H114.159L114.583 19.207H109.183L109.811 15.5977ZM121.429 28.3398L119.405 19.207H116.028L119.665 33.1797L118.311 35.1758C118.147 35.3945 117.979 35.6224 117.806 35.8594C117.632 36.1055 117.441 36.3288 117.231 36.5293C117.022 36.7389 116.794 36.9121 116.548 37.0488C116.302 37.1855 116.028 37.263 115.727 37.2812C115.536 37.2904 115.34 37.2812 115.14 37.2539C114.939 37.2266 114.743 37.2038 114.552 37.1855L113.882 39.7422C114.183 39.806 114.479 39.8652 114.77 39.9199C115.071 39.9746 115.372 40.0065 115.673 40.0156C116.293 40.0156 116.862 39.9154 117.382 39.7148C117.91 39.5143 118.389 39.2409 118.817 38.8945C119.246 38.5482 119.638 38.1471 119.993 37.6914C120.349 37.2357 120.672 36.7572 120.964 36.2559L131.177 19.207H127.499L121.62 29.8164L121.429 28.3398ZM143.944 26.6582L143.972 26.3711C144.035 25.8151 144.058 25.25 144.04 24.6758C144.022 24.0924 143.958 23.5273 143.849 22.9805C143.73 22.4336 143.557 21.9186 143.329 21.4355C143.11 20.9525 142.823 20.5241 142.468 20.1504C142.103 19.7858 141.67 19.4987 141.169 19.2891C140.668 19.0703 140.08 18.9518 139.405 18.9336C138.895 18.9245 138.412 18.9792 137.956 19.0977C137.5 19.2161 137.076 19.3984 136.684 19.6445C136.448 19.7812 136.215 19.9453 135.987 20.1367C135.768 20.319 135.559 20.5195 135.358 20.7383L135.604 19.1934L132.692 19.207L129.138 39.6875H132.337L133.663 32.6328C133.827 32.8424 134.009 33.0339 134.21 33.207C134.41 33.3711 134.62 33.5169 134.839 33.6445C135.194 33.8542 135.573 34.0091 135.974 34.1094C136.384 34.2188 136.812 34.278 137.259 34.2871C137.924 34.3053 138.535 34.2188 139.091 34.0273C139.656 33.8451 140.166 33.5853 140.622 33.248C141.142 32.8835 141.597 32.4323 141.989 31.8945C142.39 31.3568 142.727 30.7826 143.001 30.1719C143.247 29.6159 143.448 29.0417 143.602 28.4492C143.767 27.8477 143.88 27.2507 143.944 26.6582ZM140.772 26.3711L140.745 26.6582C140.699 27.0228 140.631 27.401 140.54 27.793C140.449 28.1758 140.326 28.5495 140.171 28.9141C140.007 29.3242 139.802 29.7116 139.556 30.0762C139.309 30.4408 139.022 30.7461 138.694 30.9922C138.412 31.2018 138.093 31.3659 137.737 31.4844C137.382 31.6029 136.99 31.6576 136.561 31.6484C136.242 31.6393 135.946 31.5938 135.673 31.5117C135.399 31.4297 135.153 31.3112 134.934 31.1562C134.743 31.0104 134.57 30.8372 134.415 30.6367C134.26 30.4362 134.128 30.1992 134.018 29.9258L135.181 23.3223C135.354 23.0944 135.536 22.8848 135.727 22.6934C135.928 22.4928 136.138 22.3242 136.356 22.1875C136.639 21.9961 136.944 21.8548 137.272 21.7637C137.601 21.6634 137.951 21.6178 138.325 21.627C138.726 21.6361 139.063 21.709 139.337 21.8457C139.619 21.9733 139.861 22.151 140.061 22.3789C140.244 22.5885 140.39 22.8438 140.499 23.1445C140.608 23.4453 140.69 23.7598 140.745 24.0879C140.809 24.4616 140.841 24.849 140.841 25.25C140.841 25.6419 140.818 26.0156 140.772 26.3711ZM151.419 34.2734C152.586 34.2826 153.72 34.0638 154.823 33.6172C155.926 33.1615 156.81 32.4688 157.476 31.5391L155.89 29.8301C155.343 30.4043 154.718 30.8555 154.017 31.1836C153.315 31.5026 152.558 31.6484 151.747 31.6211C151.182 31.612 150.685 31.498 150.257 31.2793C149.837 31.0514 149.491 30.7552 149.218 30.3906C148.944 30.026 148.744 29.6068 148.616 29.1328C148.489 28.6497 148.443 28.1439 148.479 27.6152H158.364L158.583 26.207C158.701 25.2682 158.683 24.3704 158.528 23.5137C158.373 22.6478 158.077 21.8776 157.64 21.2031C157.202 20.5286 156.619 19.9909 155.89 19.5898C155.16 19.1797 154.281 18.9609 153.251 18.9336C152.531 18.9154 151.843 19.002 151.186 19.1934C150.539 19.3757 149.938 19.64 149.382 19.9863C148.899 20.2962 148.448 20.6608 148.028 21.0801C147.618 21.4902 147.249 21.9368 146.921 22.4199C146.511 23.0306 146.173 23.6914 145.909 24.4023C145.654 25.1133 145.485 25.8424 145.403 26.5898L145.335 27.1641C145.253 28.1393 145.33 29.0553 145.567 29.9121C145.813 30.7689 146.205 31.5117 146.743 32.1406C147.272 32.7878 147.933 33.3027 148.726 33.6855C149.518 34.0684 150.416 34.2643 151.419 34.2734ZM153.046 21.5859C153.511 21.6042 153.916 21.7044 154.263 21.8867C154.618 22.069 154.91 22.3151 155.138 22.625C155.356 22.9258 155.507 23.2767 155.589 23.6777C155.68 24.0788 155.689 24.5026 155.616 24.9492L155.561 25.25L148.821 25.2363C149.004 24.7806 149.222 24.3294 149.477 23.8828C149.733 23.4362 150.033 23.0397 150.38 22.6934C150.717 22.347 151.104 22.069 151.542 21.8594C151.989 21.6497 152.49 21.5586 153.046 21.5859Z" fill="#E8DEF8"/>
</svg>
