<svg width="97" height="41" viewBox="0 0 97 41" fill="none" xmlns="http://www.w3.org/2000/svg">
<g clip-path="url(#clip0_4103_877)">
<path d="M30.165 15.3278C30.1499 13.1116 29.4271 10.958 28.1016 9.18C28.0839 9.14302 28.0592 9.10982 28.0288 9.0822C27.143 7.90025 26.0662 6.8737 24.8427 6.04464C24.8107 6.01913 24.777 5.99579 24.7419 5.97478C22.8454 4.71406 20.7084 3.85785 18.4649 3.45978H18.4369C18.4222 3.45559 18.4067 3.45559 18.3921 3.45978C17.8321 3.35359 17.2302 3.27814 16.6366 3.22784C16.5918 1.9927 16.3371 1.22982 16.0375 0.754764C15.9459 0.579214 15.8191 0.424362 15.665 0.299845C15.5108 0.175329 15.3327 0.0838157 15.1416 0.0310059H15.066H15.0156C14.8242 0.0839343 14.6457 0.175468 14.4911 0.299952C14.3365 0.424435 14.2092 0.579225 14.1169 0.754764C13.8145 1.22982 13.5569 1.9955 13.5177 3.23064C7.69705 3.72246 2.85069 6.89973 0.918867 11.1976C0.907856 11.2202 0.898497 11.2435 0.890868 11.2674C0.319566 12.5511 0.0239162 13.9399 0.0229492 15.3445C0.0229492 18.6727 1.644 21.7717 4.59213 24.0827C4.39007 25.3832 4.51613 26.7134 4.9589 27.953C4.26456 30.1886 3.64862 33.0417 4.81891 35.4673C4.81942 35.4747 4.81942 35.4822 4.81891 35.4896C6.16839 38.2561 8.81135 39.005 11.3675 39.726C12.5843 40.021 13.7688 40.4357 14.9036 40.9639L14.9428 40.9807H14.968C14.9941 40.9834 15.0203 40.9834 15.0464 40.9807H15.0884C15.1392 40.9813 15.1894 40.9687 15.234 40.9444C16.3691 40.4102 17.5545 39.9899 18.7729 39.6897C20.2287 39.2789 21.7154 38.8513 22.9725 38.0605L23.0089 38.0354C24.0083 37.4096 24.81 36.5145 25.3215 35.4533C26.5057 33.0249 25.8814 30.2081 25.2263 28.0257C25.2216 28.0104 25.214 27.9962 25.2039 27.9838C25.8702 26.3686 25.6854 24.6305 25.5986 24.0492C28.544 21.7494 30.165 18.6559 30.165 15.3278ZM29.5351 15.3278C29.5345 16.2319 29.4053 17.1313 29.1515 17.9992C28.7039 17.0883 28.1279 16.246 27.4409 15.4982C26.167 14.101 23.9132 12.3768 20.2567 11.7006C22.6555 10.7863 25.1361 10.1023 27.6648 9.65785C28.865 11.3071 29.5189 13.2894 29.5351 15.3278ZM27.2477 9.09617C23.961 9.68673 20.7625 10.6905 17.7285 12.0834C17.5326 10.499 16.827 9.25265 15.8919 8.79716C15.9227 8.68538 15.9479 8.57919 15.9731 8.473C18.7548 7.54031 21.6289 6.90886 24.5459 6.58955C25.5629 7.29067 26.4729 8.13495 27.2477 9.09617ZM23.5828 29.2664L23.4148 29.4145C22.8151 29.8829 22.1095 30.1976 21.3598 30.3311H21.3234H21.2646H21.2478C19.6828 30.6105 17.6557 30.401 15.1892 29.6772H15.1556H15.0324H15.0072C13.8837 30.0199 12.7309 30.2584 11.5635 30.3898H11.5131C9.32651 30.6022 7.68025 30.2165 6.59675 29.2273C5.33967 28.1319 5.10449 26.4133 5.10449 25.2508C5.63683 26.2512 6.43128 27.0886 7.40308 27.6736C9.01293 28.6237 11.0427 28.7914 13.4421 28.2073C13.5972 28.5047 13.8313 28.7537 14.1187 28.9272C14.4061 29.1007 14.7357 29.1919 15.0716 29.191C15.4071 29.1921 15.7364 29.1008 16.0234 28.9273C16.3104 28.7538 16.5439 28.5047 16.6982 28.2073C19.0976 28.8025 21.1302 28.6237 22.7373 27.6736C23.7104 27.0902 24.5053 26.2524 25.0359 25.2508C25.0583 26.4133 24.8231 28.1319 23.5828 29.2664ZM22.1829 37.8258C21.0969 38.3616 19.9553 38.7767 18.7784 39.0637C18.2417 38.5554 17.7806 37.9729 17.4094 37.334C16.8494 36.3308 17.1294 35.227 17.5466 34.1818C17.6166 34.003 17.7005 33.8102 17.7901 33.609C18.1317 32.8349 18.5405 31.9016 18.4005 31.0381C18.8595 31.0934 19.3212 31.1223 19.7836 31.1247C20.2476 31.1263 20.711 31.0908 21.1694 31.0185C21.3458 31.5159 21.0938 32.371 20.8671 33.1395C20.6743 33.6699 20.5583 34.2251 20.5227 34.7882C20.522 35.3929 20.6737 35.988 20.9638 36.5188C21.2539 37.0496 21.6732 37.4991 22.1829 37.8258ZM15.0912 40.3408C14.6376 40.0055 13.067 38.7116 12.7646 36.5962C12.4846 34.6737 13.3105 32.5834 15.1976 30.3786C16.0308 30.6166 16.8779 30.8033 17.7341 30.9375C17.9581 31.6473 17.5634 32.5443 17.2134 33.3407C17.121 33.5531 17.0342 33.7543 16.9614 33.9415C16.4995 35.1292 16.1663 36.3978 16.8606 37.6302C17.2001 38.2177 17.6111 38.7612 18.0841 39.2482C17.0546 39.5215 16.0519 39.8871 15.0884 40.3408H15.0912ZM22.4237 27.1426C20.9174 28.0313 18.9632 28.1654 16.6282 27.545C16.5871 27.5315 16.5436 27.5266 16.5004 27.5306C16.4573 27.5347 16.4154 27.5476 16.3776 27.5686C16.3397 27.5896 16.3066 27.6182 16.2803 27.6527C16.2541 27.6871 16.2353 27.7266 16.2251 27.7686C16.1424 28.0033 15.9885 28.2063 15.7847 28.3496C15.581 28.4928 15.3376 28.5691 15.0884 28.5678C14.8371 28.5697 14.5917 28.4924 14.3871 28.3469C14.1824 28.2014 14.0291 27.9951 13.9489 27.7574C13.9382 27.717 13.9193 27.6793 13.8933 27.6466C13.8672 27.6139 13.8347 27.5869 13.7977 27.5674C13.7577 27.546 13.7137 27.5329 13.6684 27.5291C13.6232 27.5252 13.5776 27.5307 13.5345 27.545C11.2051 28.1626 9.25931 28.0285 7.75025 27.1426C6.56856 26.4144 5.68524 25.2901 5.25847 23.971C5.51325 23.4568 6.76194 21.1206 9.56728 18.4044C9.86686 18.2312 13.6745 16.1521 20.6151 18.4212C23.4008 21.1234 24.6719 23.4847 24.9211 23.9738C24.4888 25.2894 23.6029 26.4094 22.4209 27.1343L22.4237 27.1426ZM13.0278 12.9804C13.0278 11.3792 13.6129 9.97082 14.408 9.45385C14.4946 9.39261 14.5887 9.34282 14.688 9.30575C14.7869 9.26857 14.8906 9.24598 14.996 9.23868H15.1136C15.2206 9.24117 15.3265 9.26098 15.4271 9.29737C15.5258 9.33 15.6199 9.37508 15.7071 9.4315C16.4155 9.87023 16.9642 11.0132 17.0902 12.374C17.112 12.5754 17.1223 12.7779 17.121 12.9804C17.121 13.014 17.121 13.0503 17.121 13.0866C17.1162 13.6059 17.0447 14.1224 16.9082 14.6236C16.8486 14.8317 16.7767 15.036 16.6926 15.2355C16.3147 16.1326 15.7239 16.7222 15.0688 16.7222C14.4136 16.7222 13.8229 16.1354 13.4449 15.2383C13.3545 15.0302 13.2805 14.8153 13.2238 14.5956C13.0861 14.0684 13.0202 13.5252 13.0278 12.9804ZM13.6913 16.7362C12.7441 16.7788 11.8048 16.9288 10.8916 17.1833C11.4935 16.6719 12.1683 16.1437 12.913 15.6128C13.1004 16.0322 13.3643 16.4131 13.6913 16.7362ZM16.3763 16.8256C16.7477 16.4873 17.0426 16.0738 17.2414 15.6128C18.0813 16.2192 18.8596 16.8368 19.554 17.4432C18.512 17.1569 17.4497 16.9505 16.3763 16.8256ZM16.1159 7.75763C16.3614 6.64215 16.5242 5.51013 16.603 4.37077C17.163 4.26179 17.7369 4.15839 18.3277 4.06338C20.2204 4.40487 22.037 5.08053 23.692 6.05861C21.1189 6.38688 18.5824 6.95571 16.1159 7.75763ZM14.6012 1.12084C14.7045 0.918789 14.8652 0.751611 15.0632 0.640191C15.2604 0.752519 15.4209 0.919457 15.5251 1.12084C15.7323 1.47014 15.9451 2.09051 15.9899 3.16078C15.9899 3.35639 15.9899 3.56597 15.9899 3.79232V3.85659C15.9899 4.06059 15.9731 4.27296 15.9591 4.5077C15.8576 5.68222 15.6705 6.8478 15.3991 7.99516C15.3544 8.19915 15.3096 8.40594 15.2592 8.62111C15.1943 8.611 15.1288 8.60633 15.0632 8.60714C14.9864 8.60845 14.9098 8.61405 14.8336 8.6239C14.8028 8.49257 14.7692 8.36402 14.7412 8.23269C14.4837 7.142 14.2966 6.03591 14.1813 4.92127C14.1589 4.69772 14.1421 4.48534 14.1337 4.28414C14.1253 4.08294 14.1169 3.94881 14.1141 3.79232C14.1141 3.56597 14.1141 3.35639 14.1141 3.16357C14.1813 2.09051 14.3968 1.47014 14.6012 1.12084ZM13.5037 3.83703C13.5037 4.02985 13.5177 4.23384 13.5317 4.44342C7.78664 6.00272 4.23097 8.30534 2.42233 9.75286C4.63973 6.54205 8.72456 4.2562 13.5037 3.83703ZM1.44522 11.505C1.6664 11.2674 2.90948 9.982 5.36486 8.51771C7.93826 7.01237 10.7032 5.86001 13.5849 5.09173C13.7131 6.22768 13.9095 7.35493 14.1729 8.46742C11.065 9.65609 8.19568 11.3909 5.70083 13.5896C3.18106 15.8699 1.89878 17.9937 1.38082 19.0164C0.878222 17.8265 0.624906 16.5465 0.636462 15.2552C0.648017 13.9639 0.924202 12.6886 1.44802 11.5078L1.44522 11.505ZM1.72519 19.7542C2.11716 18.8711 4.92531 13.1341 13.5065 9.41473C12.8318 10.2028 12.4006 11.491 12.4006 12.9776C12.394 13.6529 12.4884 14.3254 12.6806 14.9729C7.69705 18.4771 5.42646 22.2691 4.80211 23.4456C3.5305 22.4413 2.48178 21.1842 1.72239 19.7542H1.72519ZM5.36486 28.7578C5.58792 29.1148 5.85715 29.4408 6.16559 29.7275C6.68938 30.2003 7.30914 30.5549 7.98263 30.767C7.32355 30.9752 6.71783 31.3243 6.20759 31.7898C5.58425 32.3888 5.15101 33.1575 4.9617 34.0002C4.54454 32.2732 4.88891 30.3898 5.35087 28.7578H5.36486ZM5.42646 35.2661C5.60564 31.0409 9.56728 31.1052 9.74087 31.1108C9.77043 31.1118 9.79992 31.107 9.82766 31.0968C10.0376 31.0968 10.2532 31.1136 10.4716 31.0968C9.17252 32.1195 8.38579 33.3044 8.13381 34.6317C7.92941 35.8278 8.11077 37.0578 8.65177 38.1444C7.30789 37.5715 6.15439 36.7415 5.41246 35.2661H5.42646ZM9.58408 38.5104C9.3517 38.1555 8.41099 36.5795 8.76376 34.7547C9.04373 33.3379 10.0152 32.0888 11.6699 31.0409C12.5316 30.9484 13.3851 30.7914 14.2233 30.5714C12.5686 32.7036 11.8659 34.7631 12.1458 36.6857C12.3171 37.8029 12.7959 38.8506 13.5289 39.712C12.871 39.4829 12.199 39.2929 11.5383 39.1056C10.8776 38.9184 10.2028 38.7284 9.58408 38.5104ZM22.8073 37.4402C22.3119 37.1893 21.8958 36.8063 21.6053 36.3337C21.3147 35.8612 21.1609 35.3175 21.161 34.7631C21.2015 34.266 21.3079 33.7764 21.4774 33.3072C21.735 32.4465 21.9954 31.5607 21.8022 30.8844C22.322 30.7582 22.8202 30.5558 23.2804 30.2836C23.2804 32.6952 24.6103 33.7319 25.1647 34.0617C25.0701 34.4559 24.934 34.839 24.7587 35.2046C24.3174 36.1121 23.6395 36.8843 22.7961 37.4402H22.8073ZM25.2963 33.391C24.7503 32.9914 23.7872 31.9714 23.9328 29.8057L24.0224 29.7275C24.3204 29.4545 24.5812 29.1435 24.7979 28.8025C25.1843 30.2165 25.5006 31.8373 25.2851 33.391H25.2963ZM25.3662 23.454C24.7531 22.2971 22.4909 18.519 17.4822 15.0008C17.6847 14.3466 17.7848 13.6651 17.7789 12.9804C17.7789 12.9134 17.7789 12.8435 17.7789 12.7792C18.2185 12.5669 18.6721 12.3601 19.1396 12.1673C23.2188 12.6535 25.6462 14.4615 26.9649 15.9006C27.7765 16.7675 28.4175 17.779 28.8547 18.8823C28.1013 20.6811 26.896 22.2557 25.355 23.454H25.3662Z" fill="#3F4E65"/>
<path d="M10.8995 22.3555C9.96714 22.3555 9.13281 22.7635 8.81924 23.3726C8.78194 23.4469 8.77542 23.5327 8.80109 23.6117C8.82677 23.6907 8.88258 23.7564 8.95643 23.7946C9.00084 23.8165 9.04968 23.828 9.09922 23.8281C9.1571 23.8283 9.2139 23.8124 9.26331 23.7823C9.31273 23.7523 9.35283 23.7091 9.37919 23.6577C9.58357 23.2609 10.2191 22.9814 10.8995 22.9814C11.5798 22.9814 12.2153 23.2609 12.4225 23.6577C12.4412 23.6944 12.467 23.7272 12.4984 23.754C12.5297 23.7807 12.5661 23.8011 12.6054 23.8138C12.6447 23.8265 12.6861 23.8314 12.7273 23.8281C12.7684 23.8248 12.8085 23.8134 12.8453 23.7946C12.9199 23.7564 12.9762 23.6902 13.0019 23.6106C13.0277 23.5309 13.0207 23.4443 12.9825 23.3698C12.6633 22.7634 11.8234 22.3555 10.8995 22.3555Z" fill="#3F4E65"/>
<path d="M19.2622 22.3555C18.3299 22.3555 17.4928 22.7635 17.182 23.3726C17.1628 23.4092 17.1511 23.4493 17.1476 23.4905C17.1441 23.5317 17.1489 23.5731 17.1617 23.6124C17.1744 23.6517 17.195 23.6881 17.222 23.7194C17.2491 23.7507 17.2821 23.7762 17.3192 23.7946C17.3636 23.8165 17.4125 23.828 17.462 23.8281C17.5199 23.8283 17.5767 23.8124 17.6261 23.7823C17.6755 23.7523 17.7156 23.7091 17.742 23.6577C17.9464 23.2609 18.5819 22.9814 19.2622 22.9814C19.9426 22.9814 20.5781 23.2609 20.7853 23.6577C20.804 23.6944 20.8298 23.7272 20.8611 23.754C20.8925 23.7807 20.9289 23.8011 20.9682 23.8138C21.0075 23.8265 21.0489 23.8314 21.09 23.8281C21.1312 23.8248 21.1713 23.8134 21.2081 23.7946C21.2821 23.7558 21.338 23.6896 21.3636 23.6102C21.3893 23.5308 21.3827 23.4445 21.3453 23.3698C21.0289 22.7634 20.1918 22.3555 19.2622 22.3555Z" fill="#3F4E65"/>
<path d="M39.7146 18.0632C41.7612 18.0632 43.9786 19.181 44.3594 21.8106H41.876C41.5232 20.8102 40.7729 20.3575 39.7146 20.3575C38.2335 20.3575 37.2592 21.4752 37.2592 23.1044C37.2592 24.5575 38.2195 25.8234 39.7146 25.8401C40.7897 25.8401 41.6492 25.3036 41.918 24.2473H44.4013C44.0346 27.0418 41.82 28.1344 39.7146 28.1344C37.1948 28.1484 34.661 26.4577 34.647 23.1044C34.633 19.7511 37.2032 18.0632 39.7146 18.0632Z" fill="#3F4E65"/>
<path d="M48.3545 27.7655L49.9 24.5854L46.5767 18.5439V18.1638H49.3988L51.2634 21.7966H51.3334L53.0273 18.1638H55.7794V18.5439L51.0786 28.045H48.3545V27.7655Z" fill="#3F4E65"/>
<path d="M58.8872 28.0449H56.415V27.6789L60.861 18.0576H61.9389L66.4185 27.6705V28.0449H63.9464L61.407 22.2688L58.8872 28.0449Z" fill="#3F4E65"/>
<path d="M67.5688 20.4302V18.175H74.907V20.4302H72.4936V28.045H69.9962V20.4302H67.5688Z" fill="#3F4E65"/>
<path d="M83.0098 26.7958H79.1153L78.5358 28.0449H76.0664V27.6789L80.5124 18.0576H81.5987L86.0587 27.6789V28.0449H83.5893L83.0098 26.7958ZM81.05 22.0453L79.9301 24.6385H82.1895L81.05 22.0453Z" fill="#3F4E65"/>
<path d="M97.0001 28.045H94.4159V24.0769H91.367V28.045H88.7856V18.175H91.367V21.7519H94.4159V18.175H97.0001V28.045Z" fill="#3F4E65"/>
</g>
<defs>
<clipPath id="clip0_4103_877">
<rect width="97" height="41" fill="white"/>
</clipPath>
</defs>
</svg>
